<mxfile host="app.diagrams.net" modified="2023-08-19T10:30:00.687Z" agent="Mozilla/5.0 (Windows NT 10.0; Win64; x64) AppleWebKit/537.36 (KHTML, like Gecko) Chrome/114.0.0.0 Safari/537.36 Edg/114.0.1823.82" etag="rdT5KEpuu8GyxJX0eXVk" version="21.6.8" type="github">
  <diagram id="C5RBs43oDa-KdzZeNtuy" name="Page-1">
    <mxGraphModel dx="1226" dy="701" grid="1" gridSize="10" guides="1" tooltips="1" connect="1" arrows="1" fold="1" page="1" pageScale="1" pageWidth="827" pageHeight="1169" math="0" shadow="0">
      <root>
        <mxCell id="WIyWlLk6GJQsqaUBKTNV-0" />
        <mxCell id="WIyWlLk6GJQsqaUBKTNV-1" parent="WIyWlLk6GJQsqaUBKTNV-0" />
        <mxCell id="8JC7e0HLMWZrdcBbCA8E-17" style="edgeStyle=orthogonalEdgeStyle;rounded=0;orthogonalLoop=1;jettySize=auto;html=1;exitX=0.25;exitY=0;exitDx=0;exitDy=0;entryX=0.25;entryY=1;entryDx=0;entryDy=0;" edge="1" parent="WIyWlLk6GJQsqaUBKTNV-1" source="8JC7e0HLMWZrdcBbCA8E-4" target="8JC7e0HLMWZrdcBbCA8E-16">
          <mxGeometry relative="1" as="geometry" />
        </mxCell>
        <mxCell id="8JC7e0HLMWZrdcBbCA8E-21" style="edgeStyle=orthogonalEdgeStyle;rounded=0;orthogonalLoop=1;jettySize=auto;html=1;exitX=0;exitY=0.75;exitDx=0;exitDy=0;entryX=0.5;entryY=0;entryDx=0;entryDy=0;" edge="1" parent="WIyWlLk6GJQsqaUBKTNV-1" source="8JC7e0HLMWZrdcBbCA8E-4">
          <mxGeometry relative="1" as="geometry">
            <mxPoint x="120" y="350" as="targetPoint" />
          </mxGeometry>
        </mxCell>
        <mxCell id="8JC7e0HLMWZrdcBbCA8E-4" value="更新歌曲样例服务" style="rounded=1;whiteSpace=wrap;html=1;" vertex="1" parent="WIyWlLk6GJQsqaUBKTNV-1">
          <mxGeometry x="260" y="240" width="120" height="60" as="geometry" />
        </mxCell>
        <mxCell id="8JC7e0HLMWZrdcBbCA8E-7" value="查询" style="text;html=1;align=center;verticalAlign=middle;resizable=0;points=[];autosize=1;strokeColor=none;fillColor=none;" vertex="1" parent="WIyWlLk6GJQsqaUBKTNV-1">
          <mxGeometry x="155" y="278" width="50" height="30" as="geometry" />
        </mxCell>
        <mxCell id="8JC7e0HLMWZrdcBbCA8E-9" value="返回definition ID" style="text;html=1;align=center;verticalAlign=middle;resizable=0;points=[];autosize=1;strokeColor=none;fillColor=none;" vertex="1" parent="WIyWlLk6GJQsqaUBKTNV-1">
          <mxGeometry x="155" y="330" width="110" height="30" as="geometry" />
        </mxCell>
        <mxCell id="8JC7e0HLMWZrdcBbCA8E-13" value="" style="endArrow=classic;html=1;rounded=0;exitX=0.5;exitY=1;exitDx=0;exitDy=0;entryX=0.5;entryY=0;entryDx=0;entryDy=0;" edge="1" parent="WIyWlLk6GJQsqaUBKTNV-1" source="8JC7e0HLMWZrdcBbCA8E-4" target="8JC7e0HLMWZrdcBbCA8E-14">
          <mxGeometry width="50" height="50" relative="1" as="geometry">
            <mxPoint x="390" y="390" as="sourcePoint" />
            <mxPoint x="320" y="370" as="targetPoint" />
          </mxGeometry>
        </mxCell>
        <mxCell id="8JC7e0HLMWZrdcBbCA8E-27" style="edgeStyle=orthogonalEdgeStyle;rounded=0;orthogonalLoop=1;jettySize=auto;html=1;exitX=0.5;exitY=1;exitDx=0;exitDy=0;entryX=0.5;entryY=0;entryDx=0;entryDy=0;entryPerimeter=0;" edge="1" parent="WIyWlLk6GJQsqaUBKTNV-1" source="8JC7e0HLMWZrdcBbCA8E-14" target="8JC7e0HLMWZrdcBbCA8E-24">
          <mxGeometry relative="1" as="geometry" />
        </mxCell>
        <mxCell id="8JC7e0HLMWZrdcBbCA8E-14" value="根据definitionID拼接SQL语句" style="rounded=1;whiteSpace=wrap;html=1;" vertex="1" parent="WIyWlLk6GJQsqaUBKTNV-1">
          <mxGeometry x="260" y="390" width="120" height="50" as="geometry" />
        </mxCell>
        <mxCell id="8JC7e0HLMWZrdcBbCA8E-19" style="edgeStyle=orthogonalEdgeStyle;rounded=0;orthogonalLoop=1;jettySize=auto;html=1;exitX=0.75;exitY=1;exitDx=0;exitDy=0;entryX=0.75;entryY=0;entryDx=0;entryDy=0;" edge="1" parent="WIyWlLk6GJQsqaUBKTNV-1" source="8JC7e0HLMWZrdcBbCA8E-16" target="8JC7e0HLMWZrdcBbCA8E-4">
          <mxGeometry relative="1" as="geometry" />
        </mxCell>
        <mxCell id="8JC7e0HLMWZrdcBbCA8E-16" value="TimeTask&lt;br&gt;中间件" style="shape=process;whiteSpace=wrap;html=1;backgroundOutline=1;" vertex="1" parent="WIyWlLk6GJQsqaUBKTNV-1">
          <mxGeometry x="260" y="120" width="120" height="60" as="geometry" />
        </mxCell>
        <mxCell id="8JC7e0HLMWZrdcBbCA8E-18" value="注册定时任务" style="text;html=1;align=center;verticalAlign=middle;resizable=0;points=[];autosize=1;strokeColor=none;fillColor=none;" vertex="1" parent="WIyWlLk6GJQsqaUBKTNV-1">
          <mxGeometry x="190" y="200" width="100" height="30" as="geometry" />
        </mxCell>
        <mxCell id="8JC7e0HLMWZrdcBbCA8E-20" value="回调执行任务" style="text;html=1;align=center;verticalAlign=middle;resizable=0;points=[];autosize=1;strokeColor=none;fillColor=none;" vertex="1" parent="WIyWlLk6GJQsqaUBKTNV-1">
          <mxGeometry x="340" y="200" width="100" height="30" as="geometry" />
        </mxCell>
        <mxCell id="8JC7e0HLMWZrdcBbCA8E-29" style="edgeStyle=orthogonalEdgeStyle;rounded=0;orthogonalLoop=1;jettySize=auto;html=1;exitX=0;exitY=0.5;exitDx=0;exitDy=0;exitPerimeter=0;entryX=0.5;entryY=1;entryDx=0;entryDy=0;entryPerimeter=0;" edge="1" parent="WIyWlLk6GJQsqaUBKTNV-1" source="8JC7e0HLMWZrdcBbCA8E-24" target="8JC7e0HLMWZrdcBbCA8E-25">
          <mxGeometry relative="1" as="geometry" />
        </mxCell>
        <mxCell id="8JC7e0HLMWZrdcBbCA8E-24" value="ClickHouse" style="strokeWidth=2;html=1;shape=mxgraph.flowchart.database;whiteSpace=wrap;" vertex="1" parent="WIyWlLk6GJQsqaUBKTNV-1">
          <mxGeometry x="280" y="490" width="80" height="60" as="geometry" />
        </mxCell>
        <mxCell id="8JC7e0HLMWZrdcBbCA8E-26" style="edgeStyle=orthogonalEdgeStyle;rounded=0;orthogonalLoop=1;jettySize=auto;html=1;exitX=1;exitY=0.15;exitDx=0;exitDy=0;exitPerimeter=0;entryX=0;entryY=1;entryDx=0;entryDy=0;" edge="1" parent="WIyWlLk6GJQsqaUBKTNV-1" source="8JC7e0HLMWZrdcBbCA8E-25" target="8JC7e0HLMWZrdcBbCA8E-4">
          <mxGeometry relative="1" as="geometry" />
        </mxCell>
        <mxCell id="8JC7e0HLMWZrdcBbCA8E-25" value="MongoDB" style="strokeWidth=2;html=1;shape=mxgraph.flowchart.database;whiteSpace=wrap;" vertex="1" parent="WIyWlLk6GJQsqaUBKTNV-1">
          <mxGeometry x="80" y="350" width="80" height="60" as="geometry" />
        </mxCell>
        <mxCell id="8JC7e0HLMWZrdcBbCA8E-28" value="执行SQL语句" style="text;html=1;align=center;verticalAlign=middle;resizable=0;points=[];autosize=1;strokeColor=none;fillColor=none;" vertex="1" parent="WIyWlLk6GJQsqaUBKTNV-1">
          <mxGeometry x="310" y="448" width="100" height="30" as="geometry" />
        </mxCell>
        <mxCell id="8JC7e0HLMWZrdcBbCA8E-30" value="结果写入mongodb" style="text;html=1;align=center;verticalAlign=middle;resizable=0;points=[];autosize=1;strokeColor=none;fillColor=none;" vertex="1" parent="WIyWlLk6GJQsqaUBKTNV-1">
          <mxGeometry x="120" y="490" width="120" height="30" as="geometry" />
        </mxCell>
        <mxCell id="8JC7e0HLMWZrdcBbCA8E-38" style="rounded=0;orthogonalLoop=1;jettySize=auto;html=1;exitX=1;exitY=0.25;exitDx=0;exitDy=0;entryX=0;entryY=0.25;entryDx=0;entryDy=0;" edge="1" parent="WIyWlLk6GJQsqaUBKTNV-1" source="8JC7e0HLMWZrdcBbCA8E-31" target="8JC7e0HLMWZrdcBbCA8E-32">
          <mxGeometry relative="1" as="geometry" />
        </mxCell>
        <mxCell id="8JC7e0HLMWZrdcBbCA8E-70" style="edgeStyle=orthogonalEdgeStyle;rounded=0;orthogonalLoop=1;jettySize=auto;html=1;exitX=0.5;exitY=1;exitDx=0;exitDy=0;entryX=0.5;entryY=0;entryDx=0;entryDy=0;" edge="1" parent="WIyWlLk6GJQsqaUBKTNV-1" source="8JC7e0HLMWZrdcBbCA8E-31" target="8JC7e0HLMWZrdcBbCA8E-50">
          <mxGeometry relative="1" as="geometry" />
        </mxCell>
        <mxCell id="8JC7e0HLMWZrdcBbCA8E-31" value="web" style="rounded=1;whiteSpace=wrap;html=1;" vertex="1" parent="WIyWlLk6GJQsqaUBKTNV-1">
          <mxGeometry x="90" y="710" width="70" height="40" as="geometry" />
        </mxCell>
        <mxCell id="8JC7e0HLMWZrdcBbCA8E-40" style="rounded=0;orthogonalLoop=1;jettySize=auto;html=1;exitX=0;exitY=0.75;exitDx=0;exitDy=0;entryX=1;entryY=0.75;entryDx=0;entryDy=0;" edge="1" parent="WIyWlLk6GJQsqaUBKTNV-1" source="8JC7e0HLMWZrdcBbCA8E-32" target="8JC7e0HLMWZrdcBbCA8E-31">
          <mxGeometry relative="1" as="geometry" />
        </mxCell>
        <mxCell id="8JC7e0HLMWZrdcBbCA8E-69" style="edgeStyle=orthogonalEdgeStyle;rounded=0;orthogonalLoop=1;jettySize=auto;html=1;exitX=0.5;exitY=1;exitDx=0;exitDy=0;" edge="1" parent="WIyWlLk6GJQsqaUBKTNV-1" source="8JC7e0HLMWZrdcBbCA8E-32" target="8JC7e0HLMWZrdcBbCA8E-46">
          <mxGeometry relative="1" as="geometry" />
        </mxCell>
        <mxCell id="8JC7e0HLMWZrdcBbCA8E-32" value="PCG圈人接口" style="whiteSpace=wrap;html=1;rounded=1;" vertex="1" parent="WIyWlLk6GJQsqaUBKTNV-1">
          <mxGeometry x="425" y="710" width="110" height="40" as="geometry" />
        </mxCell>
        <mxCell id="8JC7e0HLMWZrdcBbCA8E-36" value="" style="endArrow=classic;html=1;rounded=0;entryX=0;entryY=0.5;entryDx=0;entryDy=0;edgeStyle=orthogonalEdgeStyle;strokeColor=none;" edge="1" parent="WIyWlLk6GJQsqaUBKTNV-1" source="8JC7e0HLMWZrdcBbCA8E-41" target="8JC7e0HLMWZrdcBbCA8E-32">
          <mxGeometry width="50" height="50" relative="1" as="geometry">
            <mxPoint x="120" y="880" as="sourcePoint" />
            <mxPoint x="170" y="830" as="targetPoint" />
          </mxGeometry>
        </mxCell>
        <mxCell id="8JC7e0HLMWZrdcBbCA8E-39" value="调用" style="text;html=1;align=center;verticalAlign=middle;resizable=0;points=[];autosize=1;strokeColor=none;fillColor=none;" vertex="1" parent="WIyWlLk6GJQsqaUBKTNV-1">
          <mxGeometry x="275" y="690" width="50" height="30" as="geometry" />
        </mxCell>
        <mxCell id="8JC7e0HLMWZrdcBbCA8E-42" value="" style="endArrow=classic;html=1;rounded=0;entryX=0;entryY=0.5;entryDx=0;entryDy=0;edgeStyle=orthogonalEdgeStyle;strokeColor=none;" edge="1" parent="WIyWlLk6GJQsqaUBKTNV-1" source="8JC7e0HLMWZrdcBbCA8E-50" target="8JC7e0HLMWZrdcBbCA8E-41">
          <mxGeometry width="50" height="50" relative="1" as="geometry">
            <mxPoint x="120" y="840" as="sourcePoint" />
            <mxPoint x="260" y="770" as="targetPoint" />
          </mxGeometry>
        </mxCell>
        <mxCell id="8JC7e0HLMWZrdcBbCA8E-41" value="返回PCGID" style="text;html=1;align=center;verticalAlign=middle;resizable=0;points=[];autosize=1;strokeColor=none;fillColor=none;" vertex="1" parent="WIyWlLk6GJQsqaUBKTNV-1">
          <mxGeometry x="260" y="740" width="90" height="30" as="geometry" />
        </mxCell>
        <mxCell id="8JC7e0HLMWZrdcBbCA8E-49" style="edgeStyle=orthogonalEdgeStyle;rounded=0;orthogonalLoop=1;jettySize=auto;html=1;exitX=0.5;exitY=1;exitDx=0;exitDy=0;entryX=0.5;entryY=0;entryDx=0;entryDy=0;" edge="1" parent="WIyWlLk6GJQsqaUBKTNV-1" source="8JC7e0HLMWZrdcBbCA8E-46" target="8JC7e0HLMWZrdcBbCA8E-48">
          <mxGeometry relative="1" as="geometry" />
        </mxCell>
        <mxCell id="8JC7e0HLMWZrdcBbCA8E-46" value="执行PCG任务" style="rounded=1;whiteSpace=wrap;html=1;" vertex="1" parent="WIyWlLk6GJQsqaUBKTNV-1">
          <mxGeometry x="430" y="780" width="100" height="40" as="geometry" />
        </mxCell>
        <mxCell id="8JC7e0HLMWZrdcBbCA8E-62" style="edgeStyle=orthogonalEdgeStyle;rounded=0;orthogonalLoop=1;jettySize=auto;html=1;exitX=0.5;exitY=1;exitDx=0;exitDy=0;" edge="1" parent="WIyWlLk6GJQsqaUBKTNV-1" source="8JC7e0HLMWZrdcBbCA8E-48" target="8JC7e0HLMWZrdcBbCA8E-58">
          <mxGeometry relative="1" as="geometry" />
        </mxCell>
        <mxCell id="8JC7e0HLMWZrdcBbCA8E-76" style="edgeStyle=orthogonalEdgeStyle;rounded=0;orthogonalLoop=1;jettySize=auto;html=1;exitX=0;exitY=0.75;exitDx=0;exitDy=0;entryX=1;entryY=0.75;entryDx=0;entryDy=0;" edge="1" parent="WIyWlLk6GJQsqaUBKTNV-1" source="8JC7e0HLMWZrdcBbCA8E-48" target="8JC7e0HLMWZrdcBbCA8E-53">
          <mxGeometry relative="1" as="geometry" />
        </mxCell>
        <mxCell id="8JC7e0HLMWZrdcBbCA8E-48" value="执行结果，返回状态和cosurl" style="rounded=1;whiteSpace=wrap;html=1;" vertex="1" parent="WIyWlLk6GJQsqaUBKTNV-1">
          <mxGeometry x="425" y="850" width="110" height="40" as="geometry" />
        </mxCell>
        <mxCell id="8JC7e0HLMWZrdcBbCA8E-52" value="传入PCGID" style="text;html=1;align=center;verticalAlign=middle;resizable=0;points=[];autosize=1;strokeColor=none;fillColor=none;" vertex="1" parent="WIyWlLk6GJQsqaUBKTNV-1">
          <mxGeometry x="60" y="790" width="90" height="30" as="geometry" />
        </mxCell>
        <mxCell id="8JC7e0HLMWZrdcBbCA8E-73" style="edgeStyle=orthogonalEdgeStyle;rounded=0;orthogonalLoop=1;jettySize=auto;html=1;exitX=1;exitY=0.25;exitDx=0;exitDy=0;entryX=0;entryY=0.25;entryDx=0;entryDy=0;" edge="1" parent="WIyWlLk6GJQsqaUBKTNV-1" source="8JC7e0HLMWZrdcBbCA8E-53" target="8JC7e0HLMWZrdcBbCA8E-48">
          <mxGeometry relative="1" as="geometry" />
        </mxCell>
        <mxCell id="8JC7e0HLMWZrdcBbCA8E-53" value="tagstar_task&lt;br&gt;_manager" style="rounded=1;whiteSpace=wrap;html=1;" vertex="1" parent="WIyWlLk6GJQsqaUBKTNV-1">
          <mxGeometry x="230" y="850" width="110" height="40" as="geometry" />
        </mxCell>
        <mxCell id="8JC7e0HLMWZrdcBbCA8E-55" value="激活任务" style="text;html=1;align=center;verticalAlign=middle;resizable=0;points=[];autosize=1;strokeColor=none;fillColor=none;" vertex="1" parent="WIyWlLk6GJQsqaUBKTNV-1">
          <mxGeometry x="170" y="840" width="70" height="30" as="geometry" />
        </mxCell>
        <mxCell id="8JC7e0HLMWZrdcBbCA8E-57" value="轮询执行结果" style="text;html=1;align=center;verticalAlign=middle;resizable=0;points=[];autosize=1;strokeColor=none;fillColor=none;" vertex="1" parent="WIyWlLk6GJQsqaUBKTNV-1">
          <mxGeometry x="330" y="830" width="100" height="30" as="geometry" />
        </mxCell>
        <mxCell id="8JC7e0HLMWZrdcBbCA8E-64" value="" style="edgeStyle=orthogonalEdgeStyle;rounded=0;orthogonalLoop=1;jettySize=auto;html=1;" edge="1" parent="WIyWlLk6GJQsqaUBKTNV-1" source="8JC7e0HLMWZrdcBbCA8E-58" target="8JC7e0HLMWZrdcBbCA8E-63">
          <mxGeometry relative="1" as="geometry" />
        </mxCell>
        <mxCell id="8JC7e0HLMWZrdcBbCA8E-58" value="根据cosurl下载文件" style="rounded=1;whiteSpace=wrap;html=1;" vertex="1" parent="WIyWlLk6GJQsqaUBKTNV-1">
          <mxGeometry x="425" y="930" width="110" height="40" as="geometry" />
        </mxCell>
        <mxCell id="8JC7e0HLMWZrdcBbCA8E-61" value="返回结果" style="text;html=1;align=center;verticalAlign=middle;resizable=0;points=[];autosize=1;strokeColor=none;fillColor=none;" vertex="1" parent="WIyWlLk6GJQsqaUBKTNV-1">
          <mxGeometry x="350" y="880" width="70" height="30" as="geometry" />
        </mxCell>
        <mxCell id="8JC7e0HLMWZrdcBbCA8E-66" style="edgeStyle=orthogonalEdgeStyle;rounded=0;orthogonalLoop=1;jettySize=auto;html=1;exitX=1;exitY=0.5;exitDx=0;exitDy=0;entryX=0;entryY=0.5;entryDx=0;entryDy=0;" edge="1" parent="WIyWlLk6GJQsqaUBKTNV-1" source="8JC7e0HLMWZrdcBbCA8E-63" target="8JC7e0HLMWZrdcBbCA8E-65">
          <mxGeometry relative="1" as="geometry" />
        </mxCell>
        <mxCell id="8JC7e0HLMWZrdcBbCA8E-84" style="edgeStyle=orthogonalEdgeStyle;rounded=0;orthogonalLoop=1;jettySize=auto;html=1;exitX=0;exitY=0.5;exitDx=0;exitDy=0;entryX=1;entryY=0.5;entryDx=0;entryDy=0;" edge="1" parent="WIyWlLk6GJQsqaUBKTNV-1" source="8JC7e0HLMWZrdcBbCA8E-63" target="8JC7e0HLMWZrdcBbCA8E-77">
          <mxGeometry relative="1" as="geometry" />
        </mxCell>
        <mxCell id="8JC7e0HLMWZrdcBbCA8E-63" value="QQ或Q36类型？" style="rhombus;whiteSpace=wrap;html=1;" vertex="1" parent="WIyWlLk6GJQsqaUBKTNV-1">
          <mxGeometry x="440" y="1010" width="80" height="80" as="geometry" />
        </mxCell>
        <mxCell id="8JC7e0HLMWZrdcBbCA8E-86" style="edgeStyle=orthogonalEdgeStyle;rounded=0;orthogonalLoop=1;jettySize=auto;html=1;exitX=0.5;exitY=1;exitDx=0;exitDy=0;entryX=0.5;entryY=0;entryDx=0;entryDy=0;" edge="1" parent="WIyWlLk6GJQsqaUBKTNV-1" source="8JC7e0HLMWZrdcBbCA8E-65" target="8JC7e0HLMWZrdcBbCA8E-82">
          <mxGeometry relative="1" as="geometry">
            <Array as="points">
              <mxPoint x="620" y="1170" />
              <mxPoint x="480" y="1170" />
            </Array>
          </mxGeometry>
        </mxCell>
        <mxCell id="8JC7e0HLMWZrdcBbCA8E-65" value="将文件上传囚牛" style="rounded=1;whiteSpace=wrap;html=1;" vertex="1" parent="WIyWlLk6GJQsqaUBKTNV-1">
          <mxGeometry x="570" y="1025" width="100" height="50" as="geometry" />
        </mxCell>
        <mxCell id="8JC7e0HLMWZrdcBbCA8E-67" value="Y" style="text;html=1;align=center;verticalAlign=middle;resizable=0;points=[];autosize=1;strokeColor=none;fillColor=none;" vertex="1" parent="WIyWlLk6GJQsqaUBKTNV-1">
          <mxGeometry x="520" y="1025" width="30" height="30" as="geometry" />
        </mxCell>
        <mxCell id="8JC7e0HLMWZrdcBbCA8E-71" value="" style="endArrow=classic;html=1;rounded=0;entryX=0;entryY=0.5;entryDx=0;entryDy=0;edgeStyle=orthogonalEdgeStyle;strokeColor=none;" edge="1" parent="WIyWlLk6GJQsqaUBKTNV-1" target="8JC7e0HLMWZrdcBbCA8E-50">
          <mxGeometry width="50" height="50" relative="1" as="geometry">
            <mxPoint x="100" y="840" as="sourcePoint" />
            <mxPoint x="240" y="715" as="targetPoint" />
          </mxGeometry>
        </mxCell>
        <mxCell id="8JC7e0HLMWZrdcBbCA8E-72" style="edgeStyle=orthogonalEdgeStyle;rounded=0;orthogonalLoop=1;jettySize=auto;html=1;exitX=1;exitY=0.5;exitDx=0;exitDy=0;entryX=0;entryY=0.5;entryDx=0;entryDy=0;" edge="1" parent="WIyWlLk6GJQsqaUBKTNV-1" source="8JC7e0HLMWZrdcBbCA8E-50" target="8JC7e0HLMWZrdcBbCA8E-53">
          <mxGeometry relative="1" as="geometry" />
        </mxCell>
        <mxCell id="8JC7e0HLMWZrdcBbCA8E-50" value="tagstar_admin" style="rounded=1;whiteSpace=wrap;html=1;" vertex="1" parent="WIyWlLk6GJQsqaUBKTNV-1">
          <mxGeometry x="80" y="850" width="90" height="40" as="geometry" />
        </mxCell>
        <mxCell id="8JC7e0HLMWZrdcBbCA8E-81" style="edgeStyle=orthogonalEdgeStyle;rounded=0;orthogonalLoop=1;jettySize=auto;html=1;exitX=0.5;exitY=1;exitDx=0;exitDy=0;entryX=0.5;entryY=0;entryDx=0;entryDy=0;" edge="1" parent="WIyWlLk6GJQsqaUBKTNV-1" source="8JC7e0HLMWZrdcBbCA8E-77" target="8JC7e0HLMWZrdcBbCA8E-80">
          <mxGeometry relative="1" as="geometry" />
        </mxCell>
        <mxCell id="8JC7e0HLMWZrdcBbCA8E-77" value="返回的人群包同步到ClickHouse" style="rounded=1;whiteSpace=wrap;html=1;" vertex="1" parent="WIyWlLk6GJQsqaUBKTNV-1">
          <mxGeometry x="285" y="1030" width="100" height="40" as="geometry" />
        </mxCell>
        <mxCell id="8JC7e0HLMWZrdcBbCA8E-83" style="edgeStyle=orthogonalEdgeStyle;rounded=0;orthogonalLoop=1;jettySize=auto;html=1;exitX=0.5;exitY=1;exitDx=0;exitDy=0;" edge="1" parent="WIyWlLk6GJQsqaUBKTNV-1" source="8JC7e0HLMWZrdcBbCA8E-80" target="8JC7e0HLMWZrdcBbCA8E-82">
          <mxGeometry relative="1" as="geometry" />
        </mxCell>
        <mxCell id="8JC7e0HLMWZrdcBbCA8E-80" value="根据ID拼接SQL语句查询ClickHouse做idMaping" style="rounded=1;whiteSpace=wrap;html=1;" vertex="1" parent="WIyWlLk6GJQsqaUBKTNV-1">
          <mxGeometry x="280" y="1110" width="110" height="40" as="geometry" />
        </mxCell>
        <mxCell id="8JC7e0HLMWZrdcBbCA8E-82" value="更新UserSegTask" style="rounded=1;whiteSpace=wrap;html=1;" vertex="1" parent="WIyWlLk6GJQsqaUBKTNV-1">
          <mxGeometry x="425" y="1190" width="110" height="40" as="geometry" />
        </mxCell>
        <mxCell id="8JC7e0HLMWZrdcBbCA8E-85" value="N" style="text;html=1;align=center;verticalAlign=middle;resizable=0;points=[];autosize=1;strokeColor=none;fillColor=none;" vertex="1" parent="WIyWlLk6GJQsqaUBKTNV-1">
          <mxGeometry x="395" y="1025" width="30" height="30" as="geometry" />
        </mxCell>
      </root>
    </mxGraphModel>
  </diagram>
</mxfile>
